HIERARCHY
ROOT Hips
{
    OFFSET 0.000000 0.000000 0.000000
    CHANNELS 6 Xposition Yposition Zposition Zrotation Yrotation Xrotation
    JOINT Chest
    {
        OFFSET 0.000000 1.634758 -0.000000
        CHANNELS 3 Zrotation Yrotation Xrotation
        JOINT Chest2
        {
            OFFSET 0.000000 2.197341 0.000000
            CHANNELS 3 Zrotation Yrotation Xrotation
            JOINT Neck
            {
                OFFSET 0.000000 0.961544 0.000000
                CHANNELS 3 Zrotation Yrotation Xrotation
                JOINT Head
                {
                    OFFSET 0.000000 0.632542 -0.032565
                    CHANNELS 3 Zrotation Yrotation Xrotation
                    End Site
                    {
                        OFFSET -0.000001 0.439502 2.922845
                    }
                }
            }
            JOINT LeftCollar
            {
                OFFSET 0.167536 0.778237 -0.168280
                CHANNELS 3 Zrotation Yrotation Xrotation
                JOINT LeftShoulder
                {
                    OFFSET 0.831514 -0.002900 0.006458
                    CHANNELS 3 Zrotation Yrotation Xrotation
                    JOINT LeftElbow
                    {
                        OFFSET 2.272872 -0.026639 0.059314
                        CHANNELS 3 Zrotation Yrotation Xrotation
                        JOINT LeftWrist
                        {
                            OFFSET 2.081982 -0.024402 0.054333
                            CHANNELS 3 Zrotation Yrotation Xrotation
                            JOINT LeftHandThumb1
                            {
                                OFFSET 0.218903 -0.128645 0.283837
                                CHANNELS 3 Zrotation Yrotation Xrotation
                                JOINT LeftHandThumb2
                                {
                                    OFFSET 0.137157 -0.025101 0.077902
                                    CHANNELS 3 Zrotation Yrotation Xrotation
                                    JOINT LeftHandThumb3
                                    {
                                        OFFSET 0.170244 -0.067500 -0.000077
                                        CHANNELS 3 Zrotation Yrotation Xrotation
                                        End Site
                                        {
                                            OFFSET 0.236561 -0.049779 0.115747
                                        }
                                    }
                                }
                            }
                            JOINT LeftHandFore1
                            {
                                OFFSET 0.767340 -0.016076 0.196678
                                CHANNELS 3 Zrotation Yrotation Xrotation
                                JOINT LeftHandFore2
                                {
                                    OFFSET 0.213030 0.034455 0.020647
                                    CHANNELS 3 Zrotation Yrotation Xrotation
                                    JOINT LeftHandFore3
                                    {
                                        OFFSET 0.114706 0.057354 0.017777
                                        CHANNELS 3 Zrotation Yrotation Xrotation
                                        End Site
                                        {
                                            OFFSET 0.162052 0.103256 0.021074
                                        }
                                    }
                                }
                            }
                            JOINT LeftHandMiddle1
                            {
                                OFFSET 0.709887 -0.008320 0.018526
                                CHANNELS 3 Zrotation Yrotation Xrotation
                                JOINT LeftHandMiddle2
                                {
                                    OFFSET 0.167512 -0.178551 0.011088
                                    CHANNELS 3 Zrotation Yrotation Xrotation
                                    JOINT LeftHandMiddle3
                                    {
                                        OFFSET 0.122695 -0.079363 0.005534
                                        CHANNELS 3 Zrotation Yrotation Xrotation
                                        End Site
                                        {
                                            OFFSET 0.211780 -0.103532 0.007778
                                        }
                                    }
                                }
                            }
                            JOINT LeftHandRing1
                            {
                                OFFSET 0.743817 -0.005823 -0.153668
                                CHANNELS 3 Zrotation Yrotation Xrotation
                                JOINT LeftHandRing2
                                {
                                    OFFSET 0.089881 -0.340313 -0.029018
                                    CHANNELS 3 Zrotation Yrotation Xrotation
                                    JOINT LeftHandRing3
                                    {
                                        OFFSET -0.010295 -0.135693 -0.009333
                                        CHANNELS 3 Zrotation Yrotation Xrotation
                                        End Site
                                        {
                                            OFFSET -0.036800 -0.113904 -0.009554
                                        }
                                    }
                                }
                            }
                            JOINT LeftHandLittle1
                            {
                                OFFSET 0.689408 -0.053302 -0.308304
                                CHANNELS 3 Zrotation Yrotation Xrotation
                                JOINT LeftHandLittle2
                                {
                                    OFFSET 0.145134 -0.128013 -0.024556
                                    CHANNELS 3 Zrotation Yrotation Xrotation
                                    JOINT LeftHandLittle3
                                    {
                                        OFFSET 0.079185 -0.089148 -0.016696
                                        CHANNELS 3 Zrotation Yrotation Xrotation
                                        End Site
                                        {
                                            OFFSET 0.145699 -0.121575 -0.016727
                                        }
                                    }
                                }
                            }
                        }
                    }
                }
            }
            JOINT RightCollar
            {
                OFFSET -0.167536 0.778237 -0.168280
                CHANNELS 3 Zrotation Yrotation Xrotation
                JOINT RightShoulder
                {
                    OFFSET -0.831514 -0.002900 0.006457
                    CHANNELS 3 Zrotation Yrotation Xrotation
                    JOINT RightElbow
                    {
                        OFFSET -2.272872 -0.026639 0.059313
                        CHANNELS 3 Zrotation Yrotation Xrotation
                        JOINT RightWrist
                        {
                            OFFSET -2.081982 -0.024402 0.054331
                            CHANNELS 3 Zrotation Yrotation Xrotation
                            JOINT RightHandThumb1
                            {
                                OFFSET -0.218911 -0.128571 0.283837
                                CHANNELS 3 Zrotation Yrotation Xrotation
                                JOINT RightHandThumb2
                                {
                                    OFFSET -0.137157 -0.025101 0.077902
                                    CHANNELS 3 Zrotation Yrotation Xrotation
                                    JOINT RightHandThumb3
                                    {
                                        OFFSET -0.152256 -0.099523 0.021279
                                        CHANNELS 3 Zrotation Yrotation Xrotation
                                        End Site
                                        {
                                            OFFSET -0.232805 -0.056567 0.120160
                                        }
                                    }
                                }
                            }
                            JOINT RightHandFore1
                            {
                                OFFSET -0.767344 -0.015991 0.196679
                                CHANNELS 3 Zrotation Yrotation Xrotation
                                JOINT RightHandFore2
                                {
                                    OFFSET -0.215671 0.000035 0.021974
                                    CHANNELS 3 Zrotation Yrotation Xrotation
                                    JOINT RightHandFore3
                                    {
                                        OFFSET -0.128736 -0.004019 0.013146
                                        CHANNELS 3 Zrotation Yrotation Xrotation
                                        End Site
                                        {
                                            OFFSET -0.191828 -0.001365 0.023809
                                        }
                                    }
                                }
                            }
                            JOINT RightHandMiddle1
                            {
                                OFFSET -0.709887 -0.008302 0.018525
                                CHANNELS 3 Zrotation Yrotation Xrotation
                                JOINT RightHandMiddle2
                                {
                                    OFFSET -0.196796 -0.145712 0.010051
                                    CHANNELS 3 Zrotation Yrotation Xrotation
                                    JOINT RightHandMiddle3
                                    {
                                        OFFSET -0.085696 -0.118408 0.004483
                                        CHANNELS 3 Zrotation Yrotation Xrotation
                                        End Site
                                        {
                                            OFFSET -0.159984 -0.173106 0.008347
                                        }
                                    }
                                }
                            }
                            JOINT RightHandRing1
                            {
                                OFFSET -0.743819 -0.005785 -0.153669
                                CHANNELS 3 Zrotation Yrotation Xrotation
                                JOINT RightHandRing2
                                {
                                    OFFSET -0.260983 -0.237550 -0.013832
                                    CHANNELS 3 Zrotation Yrotation Xrotation
                                    JOINT RightHandRing3
                                    {
                                        OFFSET -0.065480 -0.118891 -0.013505
                                        CHANNELS 3 Zrotation Yrotation Xrotation
                                        End Site
                                        {
                                            OFFSET -0.031375 -0.115160 -0.013190
                                        }
                                    }
                                }
                            }
                            JOINT RightHandLittle1
                            {
                                OFFSET -0.689403 -0.053298 -0.308303
                                CHANNELS 3 Zrotation Yrotation Xrotation
                                JOINT RightHandLittle2
                                {
                                    OFFSET -0.130607 -0.142393 -0.026856
                                    CHANNELS 3 Zrotation Yrotation Xrotation
                                    JOINT RightHandLittle3
                                    {
                                        OFFSET -0.069191 -0.096807 -0.018347
                                        CHANNELS 3 Zrotation Yrotation Xrotation
                                        End Site
                                        {
                                            OFFSET -0.131855 -0.133725 -0.031945
                                        }
                                    }
                                }
                            }
                        }
                    }
                }
            }
        }
    }
    JOINT LeftHip
    {
        OFFSET 0.685143 0.673822 -0.044491
        CHANNELS 3 Zrotation Yrotation Xrotation
        JOINT LeftKnee
        {
            OFFSET 0.085364 -3.750208 0.017676
            CHANNELS 3 Zrotation Yrotation Xrotation
            JOINT LeftAnkle
            {
                OFFSET 0.094583 -4.155206 0.019585
                CHANNELS 3 Zrotation Yrotation Xrotation
                JOINT LeftToe
                {
                    OFFSET -0.000000 -0.395925 0.621478
                    CHANNELS 3 Zrotation Yrotation Xrotation
                    End Site
                    {
                        OFFSET -0.000000 -0.077878 0.321152
                    }
                }
            }
        }
    }
    JOINT RightHip
    {
        OFFSET -0.685143 0.673822 -0.044492
        CHANNELS 3 Zrotation Yrotation Xrotation
        JOINT RightKnee
        {
            OFFSET -0.085364 -3.750208 0.017677
            CHANNELS 3 Zrotation Yrotation Xrotation
            JOINT RightAnkle
            {
                OFFSET -0.094583 -4.155206 0.019585
                CHANNELS 3 Zrotation Yrotation Xrotation
                JOINT RightToe
                {
                    OFFSET -0.000000 -0.395925 0.621478
                    CHANNELS 3 Zrotation Yrotation Xrotation
                    End Site
                    {
                        OFFSET -0.000000 -0.077878 0.321152
                    }
                }
            }
        }
    }
}
MOTION
Frames: 5
Frame Time: 0.033333
-0.819960 8.006101 0.423480 159.070496 -12.177256 -168.171906 0.018753 -7.948458 -3.497933 -0.078512 1.231948 -3.646104 -0.755766 1.366981 9.619608 -0.261250 5.061449 20.403185 3.602339 -6.550262 -0.096495 -25.021095 -29.221760 -40.746876 178.317474 -48.600235 -179.247589 -55.991501 12.765853 -6.845785 -0.000001 0.000003 0.000001 -0.000002 -0.000000 0.000004 0.000000 0.000003 -0.000000 0.000000 0.000005 -0.000002 -0.000004 -0.000007 0.000005 -0.000001 -0.000002 -0.000003 0.000004 0.000007 0.000001 -0.000005 -0.000010 0.000000 0.000000 -0.000000 -0.000001 0.000002 -0.000000 -0.000002 -0.000004 0.000009 -0.000005 0.000001 -0.000003 0.000003 -0.000003 0.000002 0.000001 0.000006 -0.000003 -0.000001 -0.000003 -0.000002 -0.000001 -3.118093 4.306203 0.048081 33.335392 37.099812 -31.486906 -178.358597 46.412975 -179.303543 51.117237 -9.168371 -6.473847 0.000000 -0.000007 -0.000001 -0.000002 0.000003 0.000006 0.000000 0.000002 -0.000001 -0.000001 -0.000003 0.000000 0.000000 -0.000002 0.000000 -0.000001 0.000002 0.000000 0.000002 -0.000003 -0.000002 0.000002 0.000002 0.000001 -0.000001 -0.000000 -0.000001 -0.000006 -0.000003 0.000000 0.000003 -0.000002 0.000001 0.000003 -0.000000 -0.000000 -0.000001 -0.000002 -0.000001 0.000004 0.000002 -0.000002 -0.000001 0.000003 -0.000001 -27.836058 -3.346501 -24.706324 0.142037 0.591834 26.988348 -2.464741 -4.389957 -14.663682 -0.000001 -0.000000 -0.000001 -20.596621 1.540895 -33.881618 -0.483924 -1.013898 51.030876 -6.001346 -18.154552 -28.191391 0.000000 -0.000001 0.000003
-0.819976 8.006095 0.423512 159.070450 -12.177281 -168.171875 0.019384 -7.948277 -3.497642 -0.077831 1.231872 -3.645707 -0.756492 1.367028 9.619378 -0.261242 5.061309 20.402781 3.602312 -6.550110 -0.096489 -25.020901 -29.221273 -40.747124 178.317474 -48.600128 -179.247604 -55.992393 12.766391 -6.845536 -0.000021 0.000002 -0.000008 -0.000003 -0.000002 0.000002 -0.000002 0.000005 -0.000000 -0.000006 0.000003 -0.000010 -0.000002 0.000002 0.000003 -0.000002 0.000002 -0.000002 -0.000017 -0.000002 -0.000005 -0.000004 -0.000000 -0.000003 0.000003 -0.000000 0.000004 -0.000010 -0.000002 -0.000014 -0.000000 -0.000002 0.000004 -0.000000 0.000003 0.000001 -0.000030 -0.000005 -0.000008 0.000007 0.000007 0.000001 -0.000004 -0.000000 0.000002 -3.118102 4.306577 0.048071 33.336815 37.100391 -31.486107 -178.358582 46.414719 -179.303513 51.117653 -9.168307 -6.473580 -0.000001 0.000012 -0.000002 -0.000001 -0.000003 0.000005 -0.000004 0.000003 -0.000000 -0.000001 -0.000002 0.000006 -0.000003 -0.000002 -0.000001 0.000001 0.000005 0.000000 0.000006 0.000002 0.000004 0.000000 0.000002 -0.000002 -0.000004 -0.000002 0.000002 0.000008 -0.000002 0.000008 0.000004 -0.000000 -0.000001 -0.000000 -0.000000 0.000001 0.000009 -0.000005 0.000012 0.000006 0.000002 -0.000000 -0.000005 -0.000002 0.000003 -27.836231 -3.345947 -24.706581 0.142040 0.591841 26.988665 -2.464592 -4.390539 -14.663641 -0.000001 -0.000002 0.000001 -20.596956 1.540842 -33.881916 -0.483929 -1.013902 51.031082 -6.001282 -18.154413 -28.191496 0.000002 0.000000 0.000005
-0.820023 8.006077 0.423607 159.070450 -12.177281 -168.171875 0.021364 -7.947653 -3.496747 -0.075801 1.231627 -3.644524 -0.758626 1.367182 9.618697 -0.261226 5.060908 20.401533 3.602326 -6.549636 -0.096463 -25.020254 -29.219833 -40.747952 178.317474 -48.599823 -179.247620 -55.995049 12.767991 -6.844807 -0.000026 0.000005 0.000005 0.000001 -0.000002 -0.000001 0.000001 0.000003 -0.000005 -0.000012 -0.000010 -0.000007 -0.000001 -0.000002 0.000001 -0.000000 -0.000002 -0.000002 -0.000017 -0.000000 -0.000003 -0.000005 0.000005 -0.000000 0.000005 -0.000002 -0.000002 -0.000007 -0.000002 -0.000011 0.000003 -0.000007 -0.000001 -0.000003 -0.000000 0.000001 -0.000030 -0.000009 -0.000005 0.000001 0.000002 0.000002 -0.000003 -0.000000 0.000004 -3.118134 4.307711 0.048051 33.341038 37.102222 -31.483736 -178.358475 46.419941 -179.303375 51.118862 -9.168105 -6.472784 0.000007 0.000003 -0.000003 -0.000003 0.000002 0.000005 -0.000004 -0.000002 -0.000002 0.000012 0.000002 0.000007 0.000003 -0.000000 0.000000 -0.000001 0.000003 -0.000000 0.000002 -0.000000 0.000004 0.000002 -0.000000 0.000001 -0.000005 -0.000000 0.000001 0.000021 0.000002 0.000004 -0.000005 -0.000000 0.000000 0.000002 -0.000000 0.000000 0.000018 -0.000005 0.000010 0.000003 -0.000002 0.000001 0.000000 0.000002 0.000000 -27.836611 -3.344306 -24.707190 0.142046 0.591851 26.989302 -2.464201 -4.392144 -14.663386 0.000000 -0.000000 -0.000001 -20.597805 1.540658 -33.882778 -0.483937 -1.013908 51.031628 -6.001164 -18.153881 -28.191788 -0.000000 -0.000000 0.000003
-0.820101 8.006046 0.423764 159.070450 -12.177280 -168.171875 0.024617 -7.946614 -3.495265 -0.072398 1.231219 -3.642543 -0.762161 1.367437 9.617563 -0.261195 5.060231 20.399485 3.602327 -6.548845 -0.096423 -25.018976 -29.217442 -40.749355 178.317490 -48.599354 -179.247620 -55.999435 12.770617 -6.843619 -0.000014 0.000007 -0.000011 -0.000000 0.000009 0.000001 -0.000001 -0.000000 -0.000004 0.000008 0.000015 -0.000014 0.000003 -0.000003 -0.000000 -0.000000 -0.000002 0.000004 -0.000018 0.000015 -0.000010 -0.000001 -0.000002 0.000004 0.000001 -0.000002 -0.000004 -0.000014 0.000017 -0.000014 -0.000000 -0.000003 -0.000002 -0.000000 0.000003 0.000002 -0.000025 0.000014 -0.000009 0.000003 -0.000000 -0.000001 -0.000000 -0.000003 0.000002 -3.118135 4.309601 0.048012 33.348053 37.105179 -31.479820 -178.358337 46.428570 -179.303162 51.120865 -9.167768 -6.471465 0.000001 0.000009 0.000007 -0.000003 -0.000002 0.000007 -0.000001 0.000005 -0.000001 -0.000005 -0.000009 0.000011 0.000004 -0.000002 0.000001 -0.000002 0.000002 0.000000 0.000015 -0.000010 0.000009 -0.000003 0.000003 0.000000 -0.000003 -0.000002 -0.000001 0.000015 -0.000012 0.000009 -0.000002 -0.000000 0.000001 0.000005 -0.000003 0.000002 0.000026 -0.000014 0.000017 0.000003 -0.000003 -0.000001 -0.000001 0.000002 0.000004 -27.837223 -3.341594 -24.708420 0.142062 0.591883 26.990776 -2.463537 -4.394813 -14.663165 0.000000 0.000001 0.000002 -20.599215 1.540368 -33.884132 -0.483951 -1.013918 51.032413 -6.000981 -18.153004 -28.192211 -0.000000 0.000000 0.000003
-0.820208 8.006004 0.423983 159.070450 -12.177280 -168.171875 0.029160 -7.945177 -3.493199 -0.067713 1.230662 -3.639807 -0.767065 1.367785 9.615993 -0.261144 5.059295 20.396637 3.602334 -6.547762 -0.096368 -25.017265 -29.214119 -40.751289 178.317490 -48.598701 -179.247650 -56.005535 12.774260 -6.841979 -0.000025 0.000009 -0.000008 -0.000000 -0.000002 0.000003 0.000001 0.000003 0.000000 -0.000005 -0.000005 -0.000014 -0.000001 -0.000000 0.000002 -0.000005 -0.000000 0.000002 -0.000004 0.000002 -0.000014 -0.000004 0.000002 -0.000005 0.000001 -0.000000 0.000001 -0.000005 -0.000007 -0.000020 0.000001 0.000003 -0.000001 -0.000009 0.000002 0.000001 -0.000020 -0.000002 -0.000016 0.000001 -0.000002 -0.000001 -0.000001 0.000002 0.000002 -3.118234 4.312206 0.047962 33.357845 37.109306 -31.474331 -178.358109 46.440559 -179.302872 51.123661 -9.167308 -6.469638 0.000007 0.000003 -0.000002 -0.000001 0.000002 0.000004 -0.000004 0.000003 0.000002 0.000016 0.000002 0.000002 0.000001 0.000003 0.000000 0.000001 -0.000000 -0.000000 0.000006 0.000003 0.000000 0.000002 0.000002 -0.000000 -0.000004 -0.000003 -0.000000 0.000016 0.000005 0.000002 -0.000000 -0.000002 0.000000 -0.000004 -0.000000 0.000002 0.000006 0.000003 0.000003 0.000001 -0.000003 0.000001 -0.000000 -0.000000 0.000000 -27.838089 -3.337819 -24.710009 0.142080 0.591921 26.992598 -2.462620 -4.398520 -14.662753 -0.000001 -0.000001 -0.000001 -20.601171 1.539959 -33.886127 -0.483974 -1.013937 51.033707 -6.000701 -18.151785 -28.192884 0.000000 -0.000001 -0.000001
